<svg xmlns="http://www.w3.org/2000/svg" viewBox="0 0 758.7 312.5"><path d="M32.6,249.9L0,217.1l112.1-111.4l31.9,32.7L32.6,249.9z" fill="#132e50"/><path d="M152.7 155l31.7-32.6 111.8 111.4-32.3 32.4L152.7 155z" fill="#98b1cb"/><path d="M139.2 169.5l31.5 31.5-91.5 91.4L45.6 261l93.6-91.5z" fill="#dd0957"/><path d="M151.7 248l33.1-34.2 65.9 63.8-33.8 34.8-65.2-64.4z" fill="#3e9ad5"/><path d="M227.2 14.4L260 47.3l-60.6 60-32.3-32.4 60.1-60.5z" fill="#dd0957"/><path d="M158.1 60.5l-32.3 32.3-60.5-59.9L97.9 0l60.2 60.5z" fill="#3e9ad5"/><path d="M242.3 150.8l-32.9-31.3 45.7-46.8 32.4 32.4-45.2 45.7z" fill="#132e50"/><path d="M52.2,46.4l45.5,46.5L65,124.1L20,78.6L52.2,46.4z" fill="#98b1cb"/><path d="M358.9 99.1v1.5h-23.3v-1.5h2c2.2 0 3.9-.6 4.9-2 .6-.9 1-2.9 1-6.2v-35c.1-1.8-.1-3.7-.5-5.4-.3-.7-.9-1.3-1.6-1.7-1.1-.6-2.4-1-3.7-1h-2v-1.5H359v1.5h-2c-2.2 0-3.8.6-4.8 2-.7.8-1 2.9-1 6.2v35c-.1 1.8.1 3.7.5 5.4.3.8 1 1.4 1.7 1.8 1.1.6 2.4 1 3.6 1l1.9-.1zm15.9-28.5c4.3-5.2 8.4-7.8 12.3-7.8 1.8 0 3.6.5 5.2 1.5 1.6 1.3 2.8 3 3.5 5 .7 2.4 1 4.9.9 7.4v15.6c-.1 1.6.1 3.2.6 4.7.3.6.8 1.2 1.4 1.5 1.1.5 2.4.7 3.6.6v1.4H384v-1.4h.8c1.2.1 2.5-.2 3.6-.8.7-.6 1.2-1.4 1.4-2.3.2-1.3.2-2.5.2-3.8v-15c0-3.3-.4-5.8-1.3-7.3s-2.6-2.4-4.4-2.3c-3.2 0-6.3 1.7-9.5 5.2v19.3c0 2.5.1 4 .4 4.6.3.7.9 1.3 1.5 1.7 1.3.5 2.6.6 4 .5v1.4h-18.2v-1.4h.8c1.9 0 3.1-.5 3.8-1.4s1-2.8 1-5.4V78.7c.1-2.7 0-5.4-.3-8.1-.1-.7-.4-1.5-.9-2-.5-.4-1.1-.6-1.7-.5-.9 0-1.8.2-2.7.6l-.6-1.4 11-4.5h1.7l.2 7.8zm41.6-18.7V64h8.6v2.8h-8.6v23.8c0 2.4.3 4 1 4.8.6.8 1.6 1.3 2.6 1.2.9 0 1.8-.3 2.6-.8.9-.6 1.5-1.4 1.9-2.4h1.6c-.7 2.3-2.1 4.4-4 5.9-1.5 1.2-3.4 2-5.3 2-1.3 0-2.5-.4-3.6-1-1.2-.7-2.1-1.7-2.6-2.9-.7-1.9-1-3.9-.9-5.9V66.7h-5.8v-1.3c1.7-.7 3.2-1.7 4.5-3 1.6-1.5 3-3.2 4.1-5 1-1.8 1.8-3.7 2.6-5.6l1.3.1zm19 25.8c0 5.4 1.3 9.7 4 12.8 2.3 2.9 5.7 4.6 9.4 4.6 2.3 0 4.5-.7 6.3-2s3.3-3.6 4.5-6.8l1.2.8a19.27 19.27 0 0 1-4.9 10c-2.5 2.9-6.3 4.6-10.1 4.5-4.3 0-8.5-1.8-11.3-5.1-3.1-3.4-4.7-8-4.7-13.8 0-6.3 1.6-11.2 4.8-14.7 3.1-3.4 7.5-5.3 12-5.3 3.8-.1 7.5 1.4 10.1 4.1 2.7 2.7 4 6.3 4 10.9h-25.3zm0-2.3h17c0-1.7-.3-3.4-.8-5-.6-1.4-1.7-2.7-3-3.5-1.2-.8-2.7-1.3-4.1-1.3-2.2 0-4.4.9-5.9 2.6-2 1.9-3.1 4.5-3.2 7.2h0zM477 62.8V71c3.1-5.5 6.2-8.2 9.5-8.2 1.3 0 2.6.4 3.6 1.3.9.8 1.4 1.9 1.5 3.1 0 1-.4 1.9-1 2.6s-1.5 1.1-2.5 1.1c-1.2-.1-2.3-.6-3.1-1.4a5.1 5.1 0 0 0-2.6-1.4c-.6.1-1.2.3-1.6.8-1.5 1.6-2.8 3.4-3.7 5.4V92c-.1 1.6.2 3.1.8 4.6.4.8 1.1 1.4 1.8 1.8 1.2.5 2.5.8 3.8.7v1.4h-18.8v-1.4c1.4.1 2.9-.2 4.2-.9.7-.5 1.2-1.2 1.4-2 .2-1.3.3-2.6.2-3.9V78.1c.1-2.5 0-5.1-.3-7.6-.1-.7-.5-1.3-1-1.8-.5-.4-1.1-.6-1.7-.6a6.71 6.71 0 0 0-2.8.6l-.4-1.4 11.1-4.5h1.6zm27.9 7.8c4.3-5.2 8.4-7.8 12.3-7.8 1.8 0 3.6.5 5.2 1.5 1.6 1.3 2.8 3 3.4 5 .7 2.4 1 4.9.9 7.4v15.6c-.1 1.6.1 3.2.6 4.7.3.7.8 1.2 1.4 1.6 1.1.5 2.4.7 3.6.6v1.4h-18.1v-1.4h.8c1.2.1 2.5-.2 3.6-.8.7-.6 1.2-1.4 1.4-2.3.2-1.3.2-2.5.2-3.8v-15c0-3.3-.4-5.8-1.3-7.3s-2.6-2.4-4.4-2.3c-3.2 0-6.3 1.7-9.5 5.2v19.3c-.1 1.6 0 3.1.4 4.6.3.7.9 1.3 1.5 1.7 1.3.5 2.6.6 4 .5v1.4h-18.2V99h.8c1.9 0 3.1-.5 3.8-1.4s1-2.8 1-5.4V78.7a54.86 54.86 0 0 0-.3-8.1c-.1-.7-.4-1.5-.9-2-.5-.4-1.1-.6-1.7-.5-.9 0-1.8.2-2.7.6l-.6-1.4 11-4.5h1.7l.1 7.8zm51.7 24.7a60.21 60.21 0 0 1-7.1 5c-1.4.7-3 1-4.6 1-2.4.1-4.6-.9-6.3-2.6-1.7-1.9-2.6-4.3-2.5-6.9 0-1.6.4-3.2 1.2-4.6 1.5-2.2 3.4-3.9 5.7-5.1 4.3-2.3 8.9-4.3 13.5-5.8v-1.4c0-3.6-.6-6.2-1.7-7.5-1.3-1.4-3.2-2.1-5.1-2-1.5-.1-2.9.4-4 1.4-.9.8-1.5 1.9-1.5 3.1l.1 2.3c.1 1-.3 2.1-.9 2.8s-1.5 1-2.5 1c-.9 0-1.8-.4-2.4-1.1-.7-.8-1-1.8-.9-2.8 0-2.3 1.2-4.4 3.5-6.3s5.6-2.9 9.9-2.9c2.8-.1 5.5.5 8 1.6 1.6.8 2.8 2.2 3.5 3.9.5 1.1.7 3.5.7 7.1v12.4c-.1 2.1 0 4.3.2 6.4 0 .6.3 1.1.7 1.6.3.3.7.4 1.1.4s.8-.1 1.1-.3c1.2-.9 2.2-1.9 3.2-2.9v2.2c-3 4-5.8 6-8.6 6-1.2.1-2.3-.4-3.1-1.4-.7-.9-1.1-2.4-1.2-4.6zm0-2.6v-14c-2.7 1-5.3 2.1-7.8 3.4-1.8.9-3.3 2.1-4.5 3.7-.9 1.2-1.4 2.7-1.4 4.2-.1 1.8.6 3.5 1.7 4.8 1 1.2 2.4 1.9 4 1.9 2.1 0 4.7-1.3 8-4zm27-40.8V64h8.6v2.8h-8.6v23.8c0 2.4.3 4 1 4.8.6.8 1.6 1.3 2.6 1.2.9 0 1.8-.3 2.6-.8.9-.6 1.5-1.4 1.9-2.4h1.6c-.7 2.3-2.1 4.4-4 5.9-1.5 1.2-3.4 2-5.3 2-1.3 0-2.5-.4-3.6-1-1.2-.7-2.1-1.7-2.6-2.9-.7-1.9-1-3.9-.8-5.9V66.7h-5.8v-1.3c1.7-.7 3.2-1.7 4.5-3 1.6-1.5 3-3.2 4.1-5 1-1.8 1.8-3.7 2.6-5.6l1.2.1zM609 62.8v29.5c-.1 1.5.1 3.1.5 4.6a3.53 3.53 0 0 0 1.5 1.7c1.1.5 2.4.7 3.6.6v1.4h-17.8v-1.4c1.2.1 2.5-.1 3.6-.5a3.53 3.53 0 0 0 1.5-1.7c.5-1.5.7-3.1.5-4.6V78.2c.1-2.6 0-5.2-.4-7.7a3.1 3.1 0 0 0-.9-1.8c-.5-.4-1.1-.5-1.6-.5-.9 0-1.9.2-2.7.6l-.6-1.4 11-4.5 1.8-.1zm-3.3-19.2c2.2 0 4 1.8 4 4 0 1.1-.4 2.1-1.2 2.9-.7.8-1.8 1.2-2.9 1.2-2.3 0-4.1-1.8-4.1-4.1 0-1.1.4-2.1 1.2-2.9.8-.7 1.9-1.1 3-1.1h0zm32 19.2c5.2-.2 10.2 2.2 13.4 6.4 2.8 3.5 4.3 7.9 4.3 12.4 0 3.5-.8 6.9-2.4 10-2.7 6.3-8.9 10.3-15.7 10.2-5.2.2-10.2-2.3-13.2-6.6-2.7-3.6-4.2-8-4.1-12.5 0-3.5.9-6.9 2.5-10 2.7-6 8.7-9.8 15.2-9.9h0zm-1.2 2.6c-1.5 0-3 .5-4.3 1.3-1.6 1.1-2.8 2.6-3.5 4.4-1 2.6-1.4 5.4-1.3 8.1-.1 4.8 1 9.6 3.2 13.8 2.1 3.9 4.9 5.8 8.4 5.8 2.5 0 4.9-1.2 6.4-3.2 1.7-2.1 2.5-5.8 2.5-11 0-6.5-1.4-11.6-4.2-15.4-1.6-2.3-4.3-3.8-7.2-3.8zm35.6 5.2c4.3-5.2 8.4-7.8 12.3-7.8 1.8 0 3.6.5 5.2 1.5 1.6 1.3 2.8 3 3.4 5 .7 2.4 1 4.9.9 7.4v15.6c-.1 1.6.1 3.2.6 4.7.3.7.8 1.2 1.4 1.6 1.2.5 2.4.7 3.7.6v1.4h-18.2v-1.4h.8c1.2.1 2.5-.2 3.6-.8.7-.6 1.2-1.4 1.4-2.3.2-1.3.2-2.5.2-3.8v-15c0-3.3-.4-5.8-1.3-7.3s-2.6-2.4-4.4-2.3c-3.2 0-6.3 1.7-9.5 5.2v19.3c-.1 1.6 0 3.1.4 4.6.3.7.9 1.3 1.5 1.7 1.3.5 2.6.6 4 .5v1.4H660V99h.8c1.9 0 3.1-.5 3.8-1.4s1-2.8 1-5.4V78.7c.1-2.7 0-5.4-.3-8.1-.1-.7-.4-1.5-.9-2-.5-.4-1.1-.6-1.7-.5-.9 0-1.8.2-2.7.6l-.6-1.4 11-4.5h1.7v7.8zm51.8 24.7a60.21 60.21 0 0 1-7.1 5c-1.4.7-3 1-4.6 1-2.4.1-4.6-.9-6.3-2.6-1.7-1.9-2.6-4.3-2.5-6.9 0-1.6.4-3.2 1.2-4.6 1.5-2.2 3.4-3.9 5.7-5.1 4.3-2.3 8.9-4.3 13.5-5.8v-1.4c0-3.6-.6-6.2-1.7-7.5-1.3-1.4-3.2-2.1-5.1-2-1.5-.1-2.9.4-4 1.4-.9.8-1.5 1.9-1.5 3.1l.1 2.3c.1 1-.3 2.1-.9 2.8s-1.5 1-2.5 1c-.9 0-1.8-.4-2.4-1.1-.7-.8-1-1.8-.9-2.8 0-2.3 1.2-4.4 3.5-6.3s5.6-2.9 9.9-2.9c2.8-.1 5.5.5 8 1.6 1.6.8 2.8 2.2 3.5 3.9.5 1.1.7 3.5.7 7.1v12.4c-.1 2.1 0 4.3.2 6.4 0 .6.3 1.1.7 1.6.3.3.7.4 1.1.4s.8-.1 1.1-.3c1.2-.9 2.2-1.9 3.2-2.9v2.2c-3 4-5.8 6-8.6 6a4.1 4.1 0 0 1-3.1-1.4c-.8-.9-1.2-2.4-1.2-4.6zm0-2.6v-14c-2.7 1-5.3 2.1-7.8 3.4-1.8.9-3.3 2.1-4.5 3.7-.9 1.2-1.4 2.7-1.4 4.2-.1 1.8.6 3.5 1.7 4.8 1 1.2 2.4 1.9 4 1.9 2 0 4.7-1.3 8-4zm28.9-49v48.7c-.1 1.5.1 3.1.5 4.6.3.7.9 1.3 1.5 1.7 1.2.5 2.6.7 3.9.6v1.4h-18v-1.4c1.2.1 2.3-.1 3.4-.5a3.53 3.53 0 0 0 1.5-1.7c.4-1.5.6-3.1.5-4.6V59a48.32 48.32 0 0 0-.3-7.6c-.1-.7-.4-1.4-.9-1.9-.5-.4-1-.5-1.6-.5-.9 0-1.8.3-2.6.6l-.7-1.4 10.9-4.5h1.9zM381 130.3l.6 12.7h-1.5c-.1-1.7-.6-3.3-1.2-4.8-.7-1.4-1.9-2.6-3.3-3.4-1.7-.8-3.6-1.2-5.4-1.1h-7.6v41.5c0 3.3.4 5.4 1.1 6.2 1.2 1.2 3 1.8 4.7 1.7h1.9v1.5h-23v-1.5h1.9c2.3 0 3.9-.7 4.9-2.1.6-.9.9-2.8.9-5.9v-41.5h-6.5c-1.8-.1-3.6.1-5.4.6-1.5.6-2.7 1.6-3.6 2.9-1.1 1.8-1.7 3.8-1.8 5.9h-1.5l.6-12.7H381zm13.7 16.5v8.2c3.1-5.5 6.2-8.2 9.4-8.2 1.3 0 2.7.4 3.6 1.3a4.1 4.1 0 0 1 1.4 3.1c0 1-.3 1.9-1 2.6-.6.7-1.5 1.1-2.5 1.1-1.2-.1-2.3-.6-3.1-1.4a5.1 5.1 0 0 0-2.6-1.4c-.6.1-1.2.3-1.6.8-1.5 1.6-2.8 3.4-3.7 5.4V176c-.1 1.6.2 3.1.8 4.6.4.8 1 1.4 1.8 1.8 1.2.5 2.5.8 3.8.7v1.4h-18.8v-1.4c1.4.1 2.9-.2 4.2-.9.7-.5 1.2-1.2 1.4-2 .2-1.3.3-2.6.2-3.9V162a48.32 48.32 0 0 0-.3-7.6c-.1-.7-.5-1.3-1-1.8-.5-.4-1.1-.6-1.7-.6a6.71 6.71 0 0 0-2.8.6l-.4-1.4 11.1-4.5h1.8zm38 32.5a60.21 60.21 0 0 1-7.1 5c-1.4.7-3 1-4.6 1-2.4.1-4.6-.9-6.3-2.6-1.7-1.9-2.6-4.3-2.5-6.9 0-1.6.4-3.2 1.2-4.6 1.4-2.2 3.4-3.9 5.7-5.1 4.3-2.3 8.9-4.3 13.5-5.8v-1.5c0-3.6-.6-6.2-1.7-7.5-1.3-1.4-3.2-2.1-5.1-2-1.5-.1-2.9.4-4 1.4-.9.8-1.5 1.9-1.5 3.1l.1 2.3a3.61 3.61 0 0 1-1 2.8c-.6.7-1.5 1-2.5 1-.9 0-1.8-.3-2.4-1-.7-.8-1-1.8-.9-2.9 0-2.3 1.2-4.4 3.5-6.3s5.6-2.9 9.9-2.9c2.8-.1 5.5.5 8 1.6 1.6.8 2.8 2.2 3.5 3.9.5 1.1.7 3.5.7 7v12.5c-.1 2.1 0 4.3.2 6.4 0 .6.3 1.1.7 1.6.3.3.7.4 1.1.4s.8-.1 1.1-.3c1.2-.9 2.2-1.9 3.2-2.9v2.2c-3 4-5.9 6-8.6 6-1.2.1-2.3-.4-3.1-1.4-.6-.8-1-2.3-1.1-4.5zm0-2.6v-14c-2.7 1-5.3 2.1-7.8 3.4-1.8.9-3.3 2.1-4.5 3.7-.9 1.2-1.4 2.7-1.4 4.2-.1 1.8.6 3.5 1.7 4.8 1 1.2 2.5 1.9 4 1.9 2.1 0 4.7-1.3 8-4zm42.2 3.8c-1.5 1.6-3.3 3-5.2 4-1.7.8-3.6 1.2-5.5 1.2-4.1 0-7.9-1.9-10.5-5-3-3.3-4.5-7.6-4.5-12.9 0-5.2 1.8-10.3 5-14.4 2.9-4.2 7.7-6.6 12.8-6.5 3-.1 5.9 1 8 3.1v-6.8c.1-2.6 0-5.2-.3-7.7-.1-.8-.4-1.5-.9-2-.5-.4-1-.5-1.6-.5-.9.1-1.9.3-2.8.6l-.5-1.4 10.9-4.5h1.8V170c-.1 2.6 0 5.3.3 7.9.1.8.5 1.5 1 2 .4.4 1 .6 1.5.6 1-.1 2-.3 2.9-.7l.4 1.4-10.9 4.5H475l-.1-5.2zm0-2.8v-18.9c-.1-1.7-.6-3.4-1.4-5-.7-1.4-1.8-2.6-3.2-3.4-1.2-.7-2.5-1.1-3.9-1.1-2.5.1-4.8 1.2-6.3 3.2-2.4 2.8-3.6 6.8-3.6 12.2s1.2 9.5 3.5 12.4c2.4 2.9 5 4.3 7.9 4.3 2.4-.1 4.7-1.3 7-3.7zm21.9-16c0 5.4 1.3 9.7 4 12.8 2.3 2.9 5.7 4.6 9.4 4.6 2.3 0 4.5-.7 6.3-2s3.3-3.6 4.5-6.8l1.2.8a19.27 19.27 0 0 1-4.9 10c-2.5 2.9-6.3 4.6-10.1 4.5-4.3 0-8.5-1.9-11.3-5.1-3.1-3.4-4.7-8-4.7-13.8 0-6.3 1.6-11.2 4.8-14.7 3.1-3.4 7.5-5.4 12.1-5.3 3.8-.1 7.5 1.4 10.1 4.1 2.7 2.7 4 6.3 4 10.9h-25.4zm0-2.3h17c0-1.7-.3-3.4-.8-5-.6-1.4-1.7-2.7-3-3.5-1.2-.8-2.7-1.3-4.1-1.3-2.3 0-4.4.9-6 2.6-1.9 1.9-2.9 4.5-3.1 7.2h0zm-113.9 53.7l1.2 18.5h-1.2c-1.7-5.5-4-9.5-7.1-11.9a17.31 17.31 0 0 0-11-3.6c-3.5 0-6.8.9-9.8 2.7-3.1 2.1-5.6 5.2-6.9 8.8-1.8 4.8-2.6 9.8-2.5 14.9-.1 4.4.7 8.8 2.3 12.8 1.4 3.4 3.9 6.3 7.1 8.3 3.3 2 7 3 10.8 2.9 3.3.1 6.5-.7 9.3-2.3 2.7-1.5 5.6-4.5 8.9-9l1.2.8c-2.7 4.8-5.9 8.4-9.5 10.6-3.9 2.3-8.4 3.5-12.9 3.4-9 0-16-3.3-20.9-10-3.7-5.1-5.7-11.3-5.5-17.6 0-5.2 1.2-10.3 3.6-14.9 2.3-4.4 5.7-8 10-10.5 4.2-2.5 9-3.8 14-3.7 4 0 8 1 11.6 2.9.7.5 1.5.8 2.4.9.7 0 1.4-.3 1.9-.8.8-.8 1.3-1.9 1.5-3l1.5-.2zm14.7 32.6c0 5.4 1.3 9.7 4 12.8 2.3 2.9 5.7 4.6 9.4 4.6 2.3 0 4.5-.7 6.3-2s3.3-3.6 4.5-6.8l1.2.8a19.27 19.27 0 0 1-4.9 10c-2.5 2.9-6.3 4.6-10.1 4.5-4.3 0-8.5-1.8-11.3-5.1-3.1-3.4-4.7-8-4.7-13.8 0-6.3 1.6-11.2 4.8-14.7 3.1-3.4 7.5-5.4 12.1-5.3 3.8-.1 7.5 1.4 10.1 4.1 2.7 2.7 4 6.3 4 10.9h-25.4zm0-2.3h17c0-1.7-.3-3.4-.8-5-.6-1.4-1.7-2.7-3-3.5-1.2-.8-2.7-1.3-4.1-1.3-2.3 0-4.4.9-6 2.6-1.8 1.9-2.9 4.5-3.1 7.2h0zm41.6-4.8c4.3-5.2 8.4-7.8 12.3-7.8 1.8 0 3.6.5 5.2 1.5 1.6 1.3 2.8 3 3.4 5 .7 2.4 1 4.9.9 7.4v15.6c-.1 1.6.1 3.2.6 4.7.3.7.8 1.2 1.4 1.6 1.1.5 2.4.7 3.6.6v1.4h-18.1v-1.4h.8c1.2.1 2.5-.2 3.6-.8.7-.6 1.2-1.4 1.4-2.3.2-1.3.2-2.5.2-3.8v-15c0-3.3-.4-5.8-1.3-7.3s-2.6-2.4-4.4-2.3c-3.2 0-6.3 1.7-9.5 5.2v19.3c-.1 1.6 0 3.1.4 4.6.3.7.9 1.3 1.5 1.7 1.3.5 2.6.6 4 .5v1.4H427v-1.5h.8c1.9 0 3.1-.5 3.8-1.4s1-2.8 1-5.4v-13.6c.1-2.7 0-5.4-.3-8-.1-.7-.4-1.5-.9-2-.5-.4-1.1-.6-1.7-.5-.9 0-1.8.2-2.7.6l-.6-1.4 11-4.5h1.7l.1 7.9zm41.6-18.7v12h8.6v2.8h-8.6v23.8c0 2.4.3 4 1 4.8.6.8 1.6 1.3 2.6 1.2.9 0 1.8-.3 2.6-.8.9-.6 1.5-1.4 1.9-2.4h1.6c-.7 2.3-2.1 4.4-4 5.9-1.5 1.2-3.4 2-5.3 2-1.3 0-2.5-.4-3.6-1-1.2-.7-2.1-1.7-2.6-2.9-.7-1.9-.9-3.9-.8-5.9v-24.7h-5.8v-1.3c1.7-.7 3.2-1.7 4.5-3 1.6-1.5 3-3.2 4.1-5 1-1.8 1.8-3.7 2.6-5.6l1.2.1zm23.6 10.9v8.2c3.1-5.5 6.2-8.2 9.5-8.2 1.3 0 2.6.4 3.6 1.3a4.1 4.1 0 0 1 1.4 3.1c0 1-.3 1.9-1 2.6-.6.7-1.5 1.1-2.5 1.1-1.2-.1-2.3-.6-3.1-1.4a5.1 5.1 0 0 0-2.6-1.4c-.6.1-1.2.3-1.6.8-1.5 1.6-2.8 3.4-3.7 5.4V260c-.1 1.6.2 3.1.8 4.6.4.8 1.1 1.4 1.8 1.8 1.2.5 2.5.8 3.8.7v1.4H492v-1.4c1.4.1 2.9-.2 4.2-.9.7-.5 1.2-1.2 1.4-2 .2-1.3.3-2.6.2-3.9V246c.1-2.5 0-5.1-.3-7.6-.1-.7-.5-1.3-1-1.8-.5-.4-1.1-.6-1.7-.6a6.71 6.71 0 0 0-2.8.6l-.4-1.4 11.1-4.5h1.7zm23.4 14.9c0 5.4 1.3 9.7 4 12.8 2.3 2.9 5.7 4.6 9.4 4.6 2.3 0 4.5-.7 6.3-2s3.3-3.6 4.5-6.8l1.2.8a19.27 19.27 0 0 1-4.9 10c-2.5 2.9-6.3 4.6-10.1 4.5-4.3 0-8.5-1.8-11.3-5.1-3.1-3.4-4.7-8-4.7-13.8 0-6.3 1.6-11.2 4.8-14.7 3.1-3.4 7.5-5.4 12.1-5.3 3.8-.1 7.5 1.4 10.1 4.1 2.7 2.7 4 6.3 4 10.9h-25.4zm0-2.3h17c0-1.7-.3-3.4-.8-5-.6-1.4-1.7-2.7-3-3.5-1.2-.8-2.7-1.3-4.1-1.3-2.3 0-4.4.9-6 2.6-2 1.9-3 4.5-3.1 7.2h0z" fill="#6d6e71"/></svg>