<svg xmlns="http://www.w3.org/2000/svg" viewBox="0 0 2482.01 774.47" class="animate-svg"><defs><style>.animate-svg path{-webkit-animation:draw ease-in-out forwards;animation:draw ease-in-out forwards;stroke:#fff0c9}.animate-svg{-webkit-animation:fillopacity 3 ease-in-out forwards;animation:fillopacity 3s ease-in-out forwards}@-webkit-keyframes draw{100%{stroke-dashoffset:0}}@keyframes draw{100%{stroke-dashoffset:0}}@-webkit-keyframes fillopacity{0%,70%{fill-opacity:0;stroke-width:0.5%}100%{fill-opacity:1;stroke-width:0}}@keyframes fillopacity{0%,70%{fill-opacity:0;stroke-width:0.5%}100%{fill-opacity:1;stroke-width:0}}.cls-1{fill:#fff0c9;}</style></defs><g id="Layer_2" data-name="Layer 2"><g id="Layer_1-2" data-name="Layer 1"><path class="cls-1" d="M0,386.92C0,172.47,173.48-.62,388.91,0c210,.61,386,169.13,385.63,388.24C774.2,603.59,600.8,773.89,388.38,774.47,173.27,775.06,0,601.58,0,386.92ZM265.74,523.29c.52.47,1.33.74,1.64.17.42-.78-.55-.82-1.05-1.05a509.86,509.86,0,0,0-49.51-32.73c-56.54-33.43-118.2-53.57-181.46-69.51-3-.75-3.53.22-3.23,2.84a407.84,407.84,0,0,0,6.45,40.36c.64,3,2,4,4.85,4.46A1477.16,1477.16,0,0,1,213.8,507.35C231.17,512.48,248.43,518,265.74,523.29ZM536.6,315.66c7.66,0,15.33.12,23,0,13.79-.27,25.36,4.73,34.94,14.46q37.32,37.94,74.5,76c2.48,2.55,4.41,3.05,7.77,2,20.29-6.39,40.73-12.36,61.55-16.77,4.91-1,5.9-3,5.82-7.58-.48-29.41-3.88-58.45-11.68-86.81-27.31-99.28-86.08-174.27-176.23-223.79C488.68,36,416,23.7,339.54,33.67A344.49,344.49,0,0,0,214.36,75.19Q115.67,130.66,65.79,232.43c-23.56,48.18-34.68,99.28-35.65,152.76-.06,3.32,1,4.7,4.13,5.38,20.8,4.54,41.3,10.24,61.62,16.56,3,.91,4.58.15,6.52-1.8,7-7.08,14.26-14,21.35-21q47-46.65,93.94-93.36a49.2,49.2,0,0,1,36.32-15c17.66,0,35.32-.13,53,.08a20.43,20.43,0,0,0,15.58-6.46c10.67-10.77,21.5-21.37,32.24-32.08,19.9-19.84,48.71-19.87,68.57.11q35.06,35.26,69.91,70.73c5,5.08,10.66,7.59,17.81,7.4C519.6,315.48,528.1,315.65,536.6,315.66ZM131.47,419c1.63.61,3.31,1.28,5,1.89A580.24,580.24,0,0,1,273,491.56,1298.76,1298.76,0,0,1,383,577.16c4.06,3.53,6.28,3.31,10.11-.07,19.86-17.54,40.56-34.06,61.53-50.24C510.84,483.41,570,445,637.74,421.63c4.83-1.67,2.51-3.18.49-5.17Q606,384.75,573.79,353a17.39,17.39,0,0,0-13-5.14c-17,.06-34,0-51,0-14.07.05-25.92-5-35.78-15q-36-36.42-72.15-72.76-13.23-13.31-26.56-.14c-9.94,9.85-19.81,19.78-29.71,29.68-5.3,5.3-5.11,7.29.7,12.46,11.71,10.42,22.63,21.66,33.46,33a23.52,23.52,0,0,1,.94,31.45c-3.53,4.1-7.48,4.62-11.2.91-12.85-12.82-25.4-25.94-38.35-38.66-11.66-11.46-24.54-21.58-41.34-23.52-11.19-1.3-22.63-.33-34-.55a20.86,20.86,0,0,0-16.11,6.56c-6,6.18-12.34,12.15-18.53,18.2-18.46,18.06-37,36-55.35,54.2C154.26,395.14,143.07,407,131.47,419Zm557.2,158.7h-7.09q-102.71,0-205.41,0a89.58,89.58,0,0,0-35.43,7.18c-22.44,9.5-36.68,26.11-37.48,50.77-1.12,34.78-.28,69.62-.42,104.43,0,3.35,1.26,3.85,4.13,3.58,11.75-1.1,23.52-2,35.2-3.85a357.35,357.35,0,0,0,226.4-133.16A272.81,272.81,0,0,0,688.67,577.66Zm-602.85,0c1.11,1.85,1.66,2.84,2.28,3.8Q141.34,663,228.38,706.56c43.7,21.86,90.06,33.9,138.79,37.05,3.72.24,5.28-.36,5.16-4.61-.3-11.65.12-23.32-.15-35-.49-21.09,1.33-42.22-1.1-63.29C369.46,626.65,366.57,613,357,602c-14.71-17.07-34.5-23.93-56-24.1-70-.56-139.92-.21-209.88-.21Zm423-53.87c1.57-.44,3.18-.81,4.72-1.33,21.26-7.22,42.77-13.65,64.36-19.76a1525.79,1525.79,0,0,1,153.62-34.84c2.28-.4,3.71-1,4.2-3.34a384.73,384.73,0,0,0,6.45-40.36c.34-3.56-1.11-4-4-3.24-7.39,1.95-14.82,3.75-22.19,5.8C657.49,443,600.64,463.25,548.85,495.8,535.06,504.46,521.48,513.42,508.84,523.79Zm-261,25.08c-65.13-22.31-131.66-39-200-51.24A391.79,391.79,0,0,0,66.63,544c1.74,3.66,3.71,5,7.85,5q84.46-.22,168.93-.1Zm278.76-.73a16.16,16.16,0,0,0,2.05.67q86.67,0,173.33.12c2.9,0,4-1.33,5.15-3.61a364.22,364.22,0,0,0,17.44-41.85c1.89-5.53,1.77-5.67-3.88-4.62a1545.26,1545.26,0,0,0-154.52,37C553.39,539.69,540.65,543.8,526.64,548.14Z" style="stroke-dasharray: 9307.73px; stroke-dashoffset: 9307.73px; animation-delay: 0s; animation-duration: 2.13721s;"></path><path class="cls-1" d="M2070.48,504.77q0,43.72,0,87.45c0,2,0,4,.21,6,.74,8,4.66,12,12.74,12.56,4.48.32,6.66,2.23,6.6,6.85q-.18,13,0,26c0,3.72-1.36,6.32-5.1,6.78-10.63,1.3-21.23,1.47-31.67-1.5a33.9,33.9,0,0,1-16.82-10.23c-3.33-3.83-6.53-3.75-10.37-.79-40.77,31.49-130.09,19.85-142.25-59.09-5.14-33.39,2.62-63.26,27.5-87.22,26.25-25.27,69.88-31.11,102.22-14.28.73.39,1.45.81,2.19,1.19,6,3.08,9.3,1.19,9.31-5.44q0-27.48,0-55c0-13.15,0-13.15,12.89-13.15q12,0,24,0c7.06,0,8.52,1.41,8.53,8.42Q2070.5,459.05,2070.48,504.77Zm-143,55.38a59.42,59.42,0,0,0,2.37,17.74c5.86,18.46,17.9,30.85,37.07,34.56s36.18-1.09,48.63-17c9.73-12.45,12.13-27,10.55-42.44-3.44-33.79-35.75-53.91-67.48-41.84C1939.36,518.5,1927.85,536.61,1927.5,560.15Z" style="stroke-dasharray: 1163.25px; stroke-dashoffset: 1163.25px; animation-delay: 0.05s; animation-duration: 0.560178s;"></path><path class="cls-1" d="M1322.45,577.86c5,0,10,0,15,0,5.57,0,7,1.38,7.51,6.92,1.36,14.39,8.13,23.9,19.62,27.32a35.92,35.92,0,0,0,20.67,0c9.47-2.75,15.69-8.92,17.54-18.56,2.1-10.93,0-21-9.18-28.38-7.76-6.27-17.11-9.51-26.16-13.26-9.68-4-19.37-7.91-28.68-12.79-20.34-10.67-31.71-27.58-34.41-50.05-2.44-20.22,1.06-39.18,15.35-54.92,10-11,22.64-17.37,37-20.11a97.81,97.81,0,0,1,45,1.69c24.66,6.85,40.56,26.56,42.18,52.22.88,13.86.88,13.86-12.93,13.86-7.5,0-15-.1-22.49,0-4.55.08-6.93-1.51-7.73-6.36-1.81-10.9-6.88-19.78-18.57-22.21-24.23-5-35.79,12.08-31.13,29.37,2,7.59,7.55,12.38,14.12,16.05,8.88,5,18.54,8.17,27.89,12.09,8.89,3.73,17.88,7.27,26.15,12.31,22.88,14,33.31,34.58,32.31,61.07-1,27.22-12.25,48.9-37.34,60.91-26.5,12.68-54,12.38-80.62.14-20.18-9.29-29.42-27.06-32.47-48.4a88.83,88.83,0,0,1-.9-10.93c-.13-6.47,1.46-8,7.77-8C1312.79,577.84,1317.62,577.86,1322.45,577.86Z" style="stroke-dasharray: 1041.42px; stroke-dashoffset: 1041.42px; animation-delay: 0.1s; animation-duration: 0.56752s;"></path><path class="cls-1" d="M1641.9,164.37c-4.33,0-8.67,0-13,0-6.29,0-7.64-1.16-8.73-7.14-3.16-17.32-17-25.88-34-21-8,2.33-13.3,7.49-15.17,15.66-2.12,9.28,0,17.51,7.13,24.1a44.69,44.69,0,0,0,13.64,8.15c12,5,24.07,9.68,35.9,15,15.85,7.12,29.56,17.07,36.91,33.44C1680,267,1669.42,322,1613,332.61a99.23,99.23,0,0,1-48.86-2.65c-25.31-8-38.43-26.1-42.15-51.72-.59-4.1-.77-8.28-1-12.43-.24-4.32,2.16-6.7,6.25-6.78,10.49-.19,21-.16,31.49,0,3.84.05,6,2.09,6.41,6.19.58,5.46,1.67,10.84,4.48,15.72,6.93,12,18,14.24,30.56,13,10.67-1,18.85-7.53,21.75-17.14,3.53-11.7.24-23.14-9.08-30.57-8.06-6.42-17.78-9.65-27.16-13.46-9.55-3.89-19.08-7.78-28.1-12.84-24.88-14-34.36-36.17-33-63.53,1.88-38.81,32.38-60,66.43-60.69,13.08-.26,25.91.72,38.16,5.92,20.62,8.73,30.68,25,33.64,46.49a84.86,84.86,0,0,1,.7,10c.06,4-2.12,6.21-6.14,6.29C1652.23,164.43,1647.06,164.36,1641.9,164.37Z" style="stroke-dasharray: 1029.65px; stroke-dashoffset: 1029.65px; animation-delay: 0.15s; animation-duration: 0.568665s;"></path><path class="cls-1" d="M2209.67,575.28q-27.49,0-55,0c-8.62,0-10.38,2.51-7.65,10.74,5.51,16.64,20.07,26.77,40,27.63,18.15.79,32.69-6.22,43.73-20.62,4.16-5.42,5.33-5.63,11.15-2.13,6.84,4.12,13.69,8.24,20.49,12.44,5,3.09,5.51,5.09,2.41,10.17-15.55,25.53-38.9,37.94-68.16,39.94-18.58,1.27-36.59-1.54-53.3-10.14-22.69-11.67-36.78-30.3-42.58-55-6.64-28.32-4.14-55.67,11.4-80.79,15.28-24.7,38.24-37.41,66.92-39.57,18.75-1.41,36.92,1.56,53.57,10.85,23.73,13.23,35.9,34.29,40.17,60.51,1.57,9.59,1.25,19.25,1,28.91-.14,5.6-1.88,7.29-7.67,7.31q-28.24,0-56.49,0Zm-23.11-33.68c10.65,0,21.31,0,32,0,6.89,0,9-3,6.68-9.6-5.51-15.91-17.38-23.7-33.5-26-20.29-2.84-38.16,7.9-43.91,26.41-2,6.31,0,9.09,6.78,9.14C2165.24,541.66,2175.9,541.6,2186.56,541.6Z" style="stroke-dasharray: 1022.13px; stroke-dashoffset: 1022.13px; animation-delay: 0.2s; animation-duration: 0.569444s;"></path><path class="cls-1" d="M1344.59,254.74q-27.49,0-55,0c-7,0-9,2.77-6.95,9.44,5.22,17.25,19.28,27.49,39.15,28.48Q1349,294,1365.6,272.33c4.06-5.29,5.46-5.54,11.19-2.1q9.84,5.91,19.64,11.91c5.36,3.29,5.9,5.49,2.54,11-9.91,16.21-23.72,27.84-41.77,33.86-24.63,8.22-49.21,7.21-73.12-2.8-22.1-9.25-37.2-25.74-44.58-48.39-9.35-28.74-8.22-57.29,6.6-84.1,14.6-26.41,37.64-40.56,67.76-43,18.81-1.51,36.93,1.26,53.57,10.46,25.09,13.86,37,36.34,40.43,64a128.37,128.37,0,0,1,.69,23.93c-.38,6-2,7.62-8,7.63Q1372.57,254.76,1344.59,254.74ZM1321.79,221c10.64,0,21.28,0,31.92,0,6.73,0,8.72-2.77,6.51-9.12-5.64-16.11-17.74-23.73-34.06-25.78-19.56-2.46-36.84,8.2-42.44,26.2-1.82,5.84.12,8.66,6.14,8.69C1300.5,221,1311.15,220.94,1321.79,221Z" style="stroke-dasharray: 1009.26px; stroke-dashoffset: 1009.26px; animation-delay: 0.25s; animation-duration: 0.570861s;"></path><path class="cls-1" d="M1855.08,208.39V96.46c0-8.49,1.08-9.6,9.34-9.61q13.5,0,27,0c6.95,0,8.34,1.42,8.34,8.56q0,27.48,0,55c0,8.38,3.25,10.32,10.52,6.36,22.14-12.07,52.69-8,68.26,9.24,10.23,11.35,13.87,25.46,14.06,40.13.52,39,.35,77.95.38,116.92,0,5.15-1.75,6.78-7,6.81-10.16.07-20.32-.08-30.48.07-4.63.07-6.75-2.11-7.07-6.47-.09-1.17-.08-2.33-.09-3.5q-.13-51.46-.28-102.92a42.13,42.13,0,0,0-.45-7.46c-2.64-14.21-11.41-20.77-26.35-19.88-11.79.7-20.76,10.26-21.28,23.61-.47,12.14-.2,24.31-.21,36.47q0,35.73,0,71.45c0,7.28-1.39,8.64-8.8,8.65q-14,0-28,0c-6.29,0-7.88-1.65-7.88-8Q1855.06,265.11,1855.08,208.39Z" style="stroke-dasharray: 992.476px; stroke-dashoffset: 992.476px; animation-delay: 0.3s; animation-duration: 0.572877s;"></path><path class="cls-1" d="M1074.89,207.78V95.86c0-7.91,1.1-9,8.88-9q13.74,0,27.48,0c6.69,0,8.28,1.6,8.3,8.74.06,18.32,0,36.64,0,55a15.52,15.52,0,0,0,.46,4.93c1.18,3.44,4.72,4.27,8.75,1.87,14.7-8.77,30.4-9.11,46.35-5.09,21.28,5.37,31.62,20.67,35.72,41.14,1.91,9.52,1.88,19.2,1.91,28.84.12,33,0,65.95,0,98.93,0,7.38-1.3,8.67-8.73,8.68q-14,0-28,0c-6.24,0-7.94-1.73-7.95-8q-.09-51.46-.12-102.92c0-5.71-.6-11.31-3-16.57-4.43-9.85-13.43-14.2-25.72-12.54-10.08,1.37-17.85,9.53-19.32,20.66a87.57,87.57,0,0,0-.44,11.46q0,48.72,0,97.43c0,9.53-1,10.53-10.54,10.53q-13,0-26,0c-6.89,0-8.15-1.24-8.15-8.17Q1074.87,264.74,1074.89,207.78Z" style="stroke-dasharray: 992.501px; stroke-dashoffset: 992.501px; animation-delay: 0.35s; animation-duration: 0.572874s;"></path><path class="cls-1" d="M2396.83,240.17c0,53.67-39.13,92.18-93.63,92.17-53.93,0-92.32-38.07-92.19-91.6.12-51.25,36.92-92.17,92.18-92.33C2364,148.22,2397,191.56,2396.83,240.17Zm-44.54.22a64.71,64.71,0,0,0-1.33-13.12c-4.41-18.39-14.74-31.75-33.43-36.76-18.3-4.89-35.18-1.58-48.57,12.69-11.34,12.09-14.09,27.14-13.12,43.13,1.94,31.79,31.82,52.76,62.42,43.85C2339.43,284,2352.25,265.54,2352.29,240.39Z" style="stroke-dasharray: 904.124px; stroke-dashoffset: 904.124px; animation-delay: 0.4s; animation-duration: 0.587043s;"></path><path class="cls-1" d="M1017.19,651.82c-25.06-.05-47.67-7-66-24.7-20.34-19.66-28.22-44.41-26.62-72.06,1.91-33,16.67-58.86,45.88-75.36,34.58-19.54,81.55-14.74,111,11.64,21.37,19.16,29.4,44.12,28.65,72.25C1108.71,614.86,1069.73,651.83,1017.19,651.82ZM969,560.32a39.18,39.18,0,0,0,1,11.23c3.72,18.34,13.58,32,31.83,37.61,18.67,5.79,36.09,2.85,50.13-11.7,12.22-12.66,15-28.37,13.24-45.35-3.14-31.26-33.07-51.18-63.06-41.79C981.55,516.76,969,535.47,969,560.32Z" style="stroke-dasharray: 904.101px; stroke-dashoffset: 904.101px; animation-delay: 0.45s; animation-duration: 0.587048s;"></path><path class="cls-1" d="M2198,239.8c0,54.24-38.76,92.56-93.61,92.54-54.09,0-92.28-38.07-92-92.22.26-51.14,37.35-91.53,92.22-91.72C2166.19,148.18,2198.74,193.1,2198,239.8Zm-92.86,52.13c22.94.07,40-12.57,46.31-34.41a59.88,59.88,0,0,0-.66-35.89c-12.92-39.23-60.12-41.44-80.49-18.66-10.63,11.88-14.14,26.17-13.25,41.66C2058.65,272.62,2078.33,291.84,2105.13,291.93Z" style="stroke-dasharray: 904.149px; stroke-dashoffset: 904.149px; animation-delay: 0.5s; animation-duration: 0.587038s;"></path><path class="cls-1" d="M1855.76,538.23c0,18.49.13,37,0,55.46-.1,10.14,4.17,17.34,14.4,17.91,3.48.19,4.9,2.41,4.9,5.71,0,9.16,0,18.32,0,27.48,0,3.86-1.93,5.92-5.61,6.31-16.94,1.78-33.39,1.37-47-11-3.83-3.49-6.94-2.25-10.43.84-20.27,18-59.34,17.44-78.17-1.15-10.31-10.19-14.59-23.27-15.79-37.34-2-23.6-.63-47.26-.9-70.9-.19-17.15-.05-34.3,0-51.46,0-6.77,1.54-8.29,8.14-8.3q14.25,0,28.49,0c7.36,0,8.77,1.36,8.77,8.69q0,51.72,0,103.43a48.61,48.61,0,0,0,1.28,12.87c2.78,10.18,8.39,15,19.37,16.47A23.18,23.18,0,0,0,1806.43,602c3.12-5.54,3.94-11.55,3.94-17.8q-.07-51,0-101.93a43.46,43.46,0,0,1,.26-5.47c.42-3.31,2.36-5,5.74-5,11.16,0,22.32-.06,33.48,0,4.91,0,5.93,3.38,5.93,7.48Q1855.74,508.75,1855.76,538.23Z" style="stroke-dasharray: 903.521px; stroke-dashoffset: 903.521px; animation-delay: 0.55s; animation-duration: 0.587163s;"></path><path class="cls-1" d="M966.17,235.93V153c0-9.39-.72-10.09-10.36-10.09-8.16,0-16.32.06-24.48,0-5.07,0-7.05-1.89-7.11-6.87q-.19-14.47,0-29c.06-5.42,1.92-7.18,7.24-7.18q57.72,0,115.42,0c5.85,0,7.2,1.3,7.23,6.93,0,9.82-.07,19.65,0,29.47,0,4.62-2,6.72-6.6,6.67-8.83-.09-17.65,0-26.48,0-7.09,0-8.47,1.39-8.47,8.46q0,83.69,0,167.37a47.71,47.71,0,0,1-.18,5.48c-.44,3.64-2.39,5.66-6.28,5.64-11.16-.05-22.32.06-33.48-.06-4.9-.05-6.46-2.12-6.46-7.95Q966.15,278.9,966.17,235.93Z" style="stroke-dasharray: 700.319px; stroke-dashoffset: 700.319px; animation-delay: 0.6s; animation-duration: 0.652537s;"></path><path class="cls-1" d="M1776.55,147.9c20.15.24,38.86,5,55.08,17.57,6.52,5.06,6.69,6.93,1.4,13.3q-7.17,8.64-14.31,17.33c-4.33,5.27-6,5.52-11.66,1.69-15.48-10.54-32.19-12.44-49.43-5.72-16.37,6.38-24.5,19.83-27.65,36.49-2.32,12.2-1.32,24.23,3.88,35.66,12.43,27.35,46.48,36.19,72.5,18.9,7.73-5.14,8.33-5,14.21,2.13,4.64,5.67,9.36,11.27,13.93,17,3.42,4.28,3.08,6.65-1.12,10.13-40.34,33.43-105.32,24.53-133.85-19.15-33.52-51.31-11.44-130.67,59.15-143.71A87.78,87.78,0,0,1,1776.55,147.9Z" style="stroke-dasharray: 738.404px; stroke-dashoffset: 738.404px; animation-delay: 0.65s; animation-duration: 0.635623s;"></path><path class="cls-1" d="M1134.41,578.19q0-30.23,0-60.46c0-7.44-1.29-8.75-8.61-8.9-6.47-.14-7.75-1.44-7.76-8,0-7.5,0-15,0-22.49,0-4.5,2-6.65,6.67-6.72,8.8-.14,9.3-.49,9.9-9.2.53-7.64.73-15.29,2.87-22.71,5.52-19.09,20-30.75,40.76-32.85a156.24,156.24,0,0,1,19.94-.92c5.39.15,7.31,1.9,7.37,7.15q.14,11.74,0,23.48c-.07,5-1.93,6.8-7,7-15.11.71-22.23,10.47-19,25.77.51,2.4,2,2.26,3.67,2.27,5.33,0,10.66.11,16,0,4.48-.11,6.49,2.26,6.56,6.37q.18,12.24,0,24.48c-.06,4.17-2.29,6.44-6.63,6.38-3,0-6,0-9,0-10,0-10.59.55-10.59,10.33V638.58c0,9.88-1,10.94-10.79,10.94-8.5,0-17,0-25.49,0-7.07,0-8.84-1.71-8.86-8.87C1134.38,619.83,1134.42,599,1134.41,578.19Z" style="stroke-dasharray: 657.303px; stroke-dashoffset: 657.303px; animation-delay: 0.7s; animation-duration: 0.675196s;"></path><path class="cls-1" d="M1478.85,565.41q0-23.49,0-47c0-6.75-1.42-8.09-8.28-8.13-1.67,0-3.34,0-5,0-4.46-.12-6.66-2.27-6.59-6.89.12-7.83.14-15.66,0-23.49-.07-3.78,1.32-6.16,4.76-7.89,9-4.51,14.15-11.92,15.23-21.93.45-4.11,2.7-6.08,6.49-6.12q16.24-.21,32.49,0c4,.05,6,2.4,6,6.44q0,7,0,14c0,6.37,1.3,7.69,7.52,7.75,4.33,0,8.66-.06,13,0,5.26.1,7,1.73,7.07,6.86q.15,12.25,0,24.49c-.07,5.14-1.77,6.67-7.11,6.76-4.5.07-9-.08-13.5.05-5.25.15-7,1.82-7,6.93,0,26-.14,52,0,78,.1,13.28,5,17.76,18.34,17.88,8,.07,9.2,1.33,9.2,9.33,0,7.5-.06,15,0,22.49,0,4.85-2.11,7.21-7,7.78-10.3,1.17-20.57,1.72-30.85,0-21.43-3.52-34.12-17.9-34.58-39.86-.34-15.81-.07-31.65-.07-47.47Z" style="stroke-dasharray: 597.905px; stroke-dashoffset: 597.905px; animation-delay: 0.75s; animation-duration: 0.714138s;"></path><path class="cls-1" d="M1689.9,520.71c0,30.16.2,60.32-.06,90.47-.23,25.65-15.52,41.1-41.36,42.39a163.64,163.64,0,0,1-28.42-.92c-4.17-.52-6.49-2.61-6.56-6.72-.15-8.82-.14-17.66-.06-26.48,0-4,2.4-6,6.32-6.24,2.49-.13,5-.05,7.49-.24,9.86-.77,15.11-6.11,15.71-16,.15-2.49.14-5,.14-7.49V430.06c0-7.87,1.41-9.27,9.3-9.28,9.83,0,19.67,0,29.5,0,6.34,0,8,1.69,8,8Q1689.91,474.73,1689.9,520.71Z" style="stroke-dasharray: 582.644px; stroke-dashoffset: 582.644px; animation-delay: 0.8s; animation-duration: 0.725866s;"></path><path class="cls-1" d="M2416,192.2q0-48,0-95.94c0-7.84,1.54-9.4,9.23-9.41,9.16,0,18.32,0,27.48,0,6.26,0,8,1.73,8,8q0,87.69,0,175.39c0,2,0,4,.1,6q.61,12,12.46,13.67c8.22,1.17,8.67,1.67,8.7,10.14,0,7.49-.11,15,.05,22.48.09,4.38-2.07,6.59-6.11,7-10,1-20,1.17-29.75-1.31-19.24-4.87-30.06-19.44-30.11-40.58C2416,255.82,2416,224,2416,192.2Z" style="stroke-dasharray: 583.847px; stroke-dashoffset: 583.847px; animation-delay: 0.85s; animation-duration: 0.724913s;"></path><path class="cls-1" d="M507.69,128.75c-.14,1.44-1.2,1.77-2.4,2q-4.41.81-8.81,1.72c-25.21,5.25-38.92,21.35-43.45,46.09-.27,1.47-.53,2.95-.86,4.4s.19,3.51-2,3.3c-1.83-.17-1.75-2.19-2-3.61-2.3-14.43-6.79-27.79-18.23-37.8-8.56-7.48-18.9-10.91-29.77-13.12-1.79-.36-3.6-.66-5.4-1-1.18-.2-2.47-.44-2.45-1.94s1.32-1.67,2.49-1.86c2.79-.46,5.61-.81,8.36-1.43,26.51-6,40.79-21.54,44.88-48.85a28.9,28.9,0,0,1,.43-3c.25-.94.49-2.09,1.74-2.15,1.61-.07,1.69,1.2,1.89,2.38a107.6,107.6,0,0,0,4.52,18.37c7,19.53,21.88,29.37,41.36,33.47,2.28.48,4.59.79,6.88,1.19C506,127.18,507.17,127.44,507.69,128.75Z" style="stroke-dasharray: 356.708px; stroke-dashoffset: 356.708px; animation-delay: 0.9s; animation-duration: 1.05139s;"></path><path class="cls-1" d="M530.22,222.64c23.23-3.08,36.71-15.59,39.73-39.65,3.38,23.55,15.95,36.78,39.86,39.72-23.47,3.45-36.83,15.9-39.39,39.51-3.2-10.06-5.17-20-12.72-27.33S540.41,225.48,530.22,222.64Z" style="stroke-dasharray: 244.796px; stroke-dashoffset: 244.796px; animation-delay: 0.95s; animation-duration: 1.47s;"></path></g></g></svg>