<?xml version="1.0" encoding="utf-8"?>
<!-- Generator: Adobe Illustrator 25.4.1, SVG Export Plug-In . SVG Version: 6.00 Build 0)  -->
<svg version="1.1" id="Layer_1" xmlns="http://www.w3.org/2000/svg" xmlns:xlink="http://www.w3.org/1999/xlink" x="0px" y="0px"
	 viewBox="0 0 462.5 462.4" style="enable-background:new 0 0 462.5 462.4;" xml:space="preserve">
<style type="text/css">
	.st0{fill:#0D1B52;}
</style>
<path class="st0" d="M439.1,274.2l18.5,3.6l0.9-4.5l-18.5-3.6L439.1,274.2z M439.5,290.6l14.1,3.8l1.2-4.4l-14.1-3.9l0.8-3l-4.1-1.1
	l-2.9,10.5l4.1,1.1L439.5,290.6z M404.4,354.2l9.5,6.2c3.9,2.6,7.9,2.3,10.8-2.1c2.9-4.4,1.5-8.4-2.3-10.9l-9.5-6.2l-2.5,3.7
	l9.4,6.2c1.8,1.2,2.5,2.9,1.3,4.7s-3,1.9-4.8,0.7l-9.5-6.2L404.4,354.2z M396.6,370.6c1.9-2.4,4.6-2.8,7.4-0.5s2.9,5.1,1,7.4
	L396.6,370.6z M390.7,371.5l14.5,12l2.7-3.3c4-4.8,3.6-10-0.9-13.8c-4.5-3.7-9.7-3-13.6,1.8L390.7,371.5z M384.9,377.6l-6.3,6.4
	l13.4,13.3l6.4-6.4l-3-3l-3.2,3.2l-2.3-2.3l3-3l-3-3l-3,3l-2.1-2.1l3.1-3.1L384.9,377.6z M351.6,406.2l11.3,15.1l3.7-2.7l-4.5-6
	l5.2-3.9l4.5,6l3.7-2.7l-11.3-15.1l-3.6,2.7l4.3,5.7l-5.2,3.9l-4.3-5.7L351.6,406.2z M333.5,428.2c2.9,5.1,8.3,6.5,13.4,3.6
	c1.4-0.7,2.5-1.8,3.1-3.2l0.5,0.8l3.8-2.2l-5.2-9l-6.3,3.6l1.9,3.2l2.4-1.4l0.7,1.2c-0.5,1.4-1.5,2.6-2.8,3.3
	c-2.5,1.5-5.7,0.7-7.1-1.8c-0.1-0.1-0.2-0.3-0.2-0.4c-1.6-2.8-1-5.8,1.6-7.3c1.5-0.9,3.4-1,5-0.2l1.8-4c-2.3-1.2-5.3-1.5-8.9,0.5
	c-4.6,2.5-6.4,8.3-3.9,12.9C333.3,427.8,333.4,428,333.5,428.2 M311.8,427.6l-4.2,1.8l4.5,10.4c1.9,4.3,5.3,6.3,10.2,4.2
	c4.9-2.1,5.8-6.2,4.1-10.3l-4.5-10.4l-4.2,1.8l4.5,10.4c0.8,1.9,0.5,3.7-1.5,4.6c-2,0.9-3.6-0.1-4.4-2L311.8,427.6z M292,438.7
	c3.1-0.9,5.6,0.9,6.5,3.9c0.9,3-0.2,5.8-3.4,6.8c-3,0.9-5.6-0.9-6.5-3.9S288.8,439.6,292,438.7 M284,446.8c1.6,5.3,6.4,8.3,12.3,6.6
	c5.1-1.2,8.2-6.4,6.9-11.4c-0.1-0.3-0.1-0.5-0.2-0.8c-1.5-5.3-6.4-8.3-12.3-6.5c-5.1,1.4-8.1,6.6-6.8,11.8
	C284,446.5,284,446.6,284,446.8 M267,444.4l1.6-0.3c0.8-0.2,1.7,0.3,1.9,1.2c0,0.1,0,0.1,0,0.2c0.2,0.8-0.2,1.7-1.1,2
	c-0.1,0-0.2,0-0.2,0.1l-1.6,0.3L267,444.4z M268.3,440.2l-6.4,1.1l3.3,18.6l4.5-0.8l-1.4-7.6l1.2-0.2l5,7l4.8-0.8l-5.7-7.7
	c1.4-1.3,2-3.2,1.6-5C274.5,441.2,272.2,439.5,268.3,440.2 M242.3,443.1l-4.5,0.3l1.3,18.8l4.5-0.3l-0.5-7.5l6.6-0.4l0.5,7.5
	l4.5-0.3l-1.2-18.9l-4.5,0.3l0.5,7.1l-6.5,0.4L242.3,443.1z M219,447.4l3.2,0.1l-0.4,14.6l4.5,0.1l0.4-14.6l3.1,0.1l0.1-4.3
	l-10.9-0.3L219,447.4z M187,439l3.5,10.4l-1.6,9.2l4.5,0.8l1.6-9.2l6.9-8.5l-4.7-0.8l-3.5,4.6l-1.7-5.5L187,439z M171.8,439.5
	l-3.9,14.1l4.4,1.2l3.8-14.1l3,0.8l1.1-4.1l-10.5-2.9l-1.1,4.1L171.8,439.5z M152.7,436.5l1.2-3.3l1.5,0.6c0.8,0.3,1.3,1.2,1,2
	c0,0,0,0.1-0.1,0.1c-0.2,0.9-1.1,1.4-2,1.1c-0.1,0-0.1,0-0.2-0.1L152.7,436.5z M151.1,428l-6.6,17.7l4.3,1.6l2.7-7.3l1.2,0.4
	l0.8,8.5l4.6,1.7l-1.1-9.6c1.8-0.4,3.3-1.7,3.9-3.5c1.2-3.4,0.1-6-3.6-7.3L151.1,428z M135.3,420.7l-8.2,17l8.1,3.9l1.8-3.8l-4-1.9
	l1.4-2.9l3.8,1.8l1.8-3.8l-3.8-1.8l1.3-2.6l4,1.9l1.8-3.8L135.3,420.7z M112.9,407.7l-3.8,19.7l4.3,2.6l15.7-12.5l-4.1-2.5
	l-10.6,8.9l3-13.5L112.9,407.7z M91,403c1.9-2.4,4.8-3.3,7.5-1.2c2.7,2,2.6,5.1,0.7,7.5c-1.9,2.4-4.8,3.3-7.5,1.2
	C89,408.5,89.1,405.5,91,403 M87.2,400.1c-3.4,4.4-3,10,1.8,13.8c4,3.4,10,2.9,13.3-1.1c0.2-0.2,0.3-0.4,0.5-0.6
	c3.4-4.3,3-10-1.9-13.8c-4-3.3-10-2.8-13.4,1.3C87.4,399.8,87.3,400,87.2,400.1 M77.1,387.7l2.4-2.5l1.1,1.1
	c0.7,0.6,0.7,1.6,0.2,2.2c-0.1,0.1-0.1,0.1-0.2,0.2c-0.5,0.7-1.5,0.8-2.2,0.3c-0.1,0-0.1-0.1-0.2-0.2L77.1,387.7z M79,379.3
	l-13.2,13.5L69,396l5.3-5.4l1.4,1.4c2.6,2.5,5.8,2.5,8.2,0c2.4-2.5,2.5-5.4-0.3-8.2L79,379.3z M47.7,355.8c-4.7,3.5-5.5,9-2,13.7
	c0.9,1.3,2.1,2.2,3.6,2.7l-0.7,0.6l2.6,3.5l8.4-6.2l-4.3-5.8l-3,2.2l1.7,2.3l-1.1,0.8c-1.5-0.3-2.7-1.1-3.6-2.4
	c-1.8-2.4-1.4-5.5,1.3-7.6s5.6-1.7,7.5,0.7c1.1,1.4,1.4,3.3,0.8,5l4.3,1.3c1-2.4,0.9-5.5-1.6-8.8c-3-4.3-8.9-5.4-13.2-2.3
	c-0.1,0.1-0.3,0.2-0.4,0.3 M23.9,277.5l-18.3,4.8l1.2,4.4l7.2-1.9l1.7,6.4l-7.2,1.9l1.2,4.4l18.3-4.8l-1.2-4.4l-6.9,1.8l-1.7-6.3
	l6.9-1.8L23.9,277.5z M1.9,263.5c0.1,1.5,0.8,3,1.8,4.1l-0.9,0.1l0.6,4.4l10.3-1.4l-1-7.2L9.1,264l0.4,2.8L8.1,267
	c-1.1-1-1.9-2.3-2-3.8c-0.4-2.8,1.5-5.5,4.3-5.9c0.2,0,0.3,0,0.5-0.1c3.2-0.4,5.7,1.3,6.1,4.2c0.3,1.8-0.3,3.6-1.7,4.7l3.1,3.2
	c2-1.7,3.4-4.4,2.8-8.5c-0.6-5.2-5.3-9-10.5-8.4c-0.2,0-0.3,0-0.5,0.1C4.5,253.3,1.2,257.7,1.9,263.5 M18.9,230.2l0.2-9l-18.9-0.5
	l-0.1,4.5l7.5,0.2l-0.1,4.4l4.2,0.1l0.1-4.4l2.9,0.1l-0.1,4.5L18.9,230.2z M0.4,244l18.9-0.8l-0.2-4.5l-18.9,0.8L0.4,244z
	 M28.4,159.1c0-2.2-1.8-4-4-4s-4,1.8-4,4c0,2.2,1.8,4,4,4C26.6,163.1,28.4,161.3,28.4,159.1 M30.1,311.8l4-1.5l-3.8-10.2l-4,1.5
	l1.1,3l-13.7,5.1l1.6,4.3l13.7-5.1L30.1,311.8z M22,329.7l17.1-7.9l-1.9-4.1l-17.1,7.9L22,329.7z M45.2,333.7l-2.3-4.1L26.5,339
	l2.1,3.8l9.7-5.5l-6,11.9l2.2,3.9l16.4-9.4l-2.2-3.8l-9.9,5.7L45.2,333.7z M54.3,89l1.9-2.5l-3.3-2.6l-6.7,8.5l3.3,2.6l2-2.5l11.5,9
	l2.8-3.6L54.3,89z M83.6,78.4L70,65.3l-3.2,3.3l5.1,4.9l-4.5,4.7l-5.1-4.9l-3.2,3.3l13.6,13.1l3.2-3.3l-5.3-5.2l4.5-4.7l5.3,5.2
	L83.6,78.4z M90,72.6l6.9-5.9l-2.8-3.2l-3.4,2.9L88.6,64l3.2-2.8L89,58l-3.2,2.8l-1.9-2.2l3.3-2.9l-2.8-3.2l-6.8,5.8L90,72.6z
	 M119.4,43.9c-1.5-2.4-3.6-3-6.2-2.5l-2.5,0.5c-1.3,0.3-2,0-2.4-0.6c-0.4-0.6-0.3-1.5,0.3-1.9c0.1,0,0.1-0.1,0.2-0.1
	c0.8-0.5,1.8-0.2,2.3,0.5c0.1,0.1,0.1,0.2,0.1,0.3l3.5-2.3c-1.7-2.9-4.4-4.2-8.1-1.8c-3.1,2-3.9,5.2-2.1,8c1,1.9,3.1,2.9,5.2,2.7
	c1.2-0.1,2.1-0.3,3.2-0.5c1.3-0.3,2.2-0.2,2.8,0.6c0.5,0.7,0.3,1.7-0.4,2.3c-0.1,0-0.1,0.1-0.2,0.1c-1.3,0.8-2.3,0.1-2.9-1l-3.6,2.3
	c1.3,2.4,4.1,4.8,8.6,1.9C120.4,50.4,121.5,47.1,119.4,43.9 M142.3,35.8l-3.8-1.7c-0.5,1.2-1.4,2.3-2.6,2.9c-2.6,1.3-5.7,0.3-7-2.2
	c-0.1-0.1-0.1-0.2-0.2-0.3c-1.4-2.7-0.8-5.8,2.2-7.3c1.2-0.6,2.6-0.7,3.9-0.4l0.9-4.3c-2.3-0.6-4.7-0.3-6.7,0.9
	c-4.8,2.2-7,7.9-4.8,12.7c0.1,0.2,0.2,0.4,0.3,0.6c2.5,4.9,7.8,7,13.4,4.2C140,39.9,141.6,38,142.3,35.8 M160.6,30.9l4.3-1.6
	l-6.6-17.7l-4.3,1.6l2.5,6.7l-6.1,2.3l-2.5-6.6l-4.3,1.6l6.6,17.7l4.3-1.6l-2.6-7l6.2-2.3L160.6,30.9z M180.9,20.9
	c-3,0.7-5.5-1.2-6.3-4.2c-0.7-3,0.4-5.8,3.7-6.6c3.2-0.8,5.6,1.2,6.3,4.2C185.4,17.3,184.2,20.1,180.9,20.9 M189.3,13.1
	c-1.3-5.3-6-8.5-12-7.1c-5.1,1.1-8.4,6.1-7.4,11.2c0,0.2,0.1,0.4,0.1,0.6c1.3,5.4,5.9,8.6,11.9,7.2c5.1-1,8.5-5.9,7.5-11
	C189.5,13.7,189.4,13.4,189.3,13.1 M212.5,10.2c0.3,3.1-1.2,5.7-4.5,6c-3.1,0.3-5.3-1.9-5.7-5s1.2-5.7,4.5-6
	C210.1,4.9,212.1,7.1,212.5,10.2 M217.2,9.6c-0.6-5.5-4.9-9.3-11-8.6c-5.2,0.4-9.2,4.9-8.8,10.2c0,0.2,0,0.4,0.1,0.6
	c0.6,5.5,4.8,9.3,10.9,8.6c5.2-0.3,9.2-4.8,8.9-10C217.2,10.1,217.2,9.9,217.2,9.6 M226.2,18.9l8.9-0.1l-0.1-4.3l-4.3,0.1L230.5,0
	l-4.6,0.1L226.2,18.9z M269.4,12.6c-0.5,3-2.6,5.2-5.9,4.7c-3.1-0.5-4.7-3.2-4.3-6.2s2.6-5.2,5.9-4.7
	C268.4,6.9,269.8,9.6,269.4,12.6 M274.1,13.3c0.8-5.4-2.4-10.2-8.5-11.1c-5.2-0.9-10.2,2.6-11.1,7.8c0,0.1,0,0.3-0.1,0.4
	c-0.8,5.5,2.3,10.2,8.4,11.1c5.1,1,10.1-2.3,11.2-7.4C274.1,13.9,274.1,13.6,274.1,13.3 M292.8,12.7l1.1-4.1l-8.8-2.3l-4.7,18.3
	l4.4,1.1l1.9-7.3l4.3,1.1l1.1-4.1l-4.3-1.1l0.7-2.8L292.8,12.7z M323.1,24.9c1.5-3,0.9-6-3.2-7.7c-3.4-1.4-6.5-0.2-7.8,2.8
	c-0.9,1.9-0.6,4.2,0.7,5.9c0.8,0.9,1.5,1.6,2.2,2.3c0.9,0.9,1.5,1.7,1.1,2.7c-0.3,0.8-1.2,1.3-2.1,1c-0.1,0-0.2-0.1-0.2-0.1
	c-1.4-0.6-1.4-1.8-0.9-2.9l-4-1.7c-1.2,2.5-1.7,6.1,3.3,8.2c3.5,1.5,6.8,0.4,8.3-3.1c1.1-2.6,0.4-4.7-1.5-6.5l-1.8-1.8
	c-1-0.9-1.2-1.6-0.9-2.3c0.3-0.7,1.1-1.1,1.8-0.8c0.1,0,0.1,0.1,0.2,0.1c0.9,0.4,1.2,1.4,0.9,2.2c0,0.1-0.1,0.2-0.1,0.2L323.1,24.9z
	 M340.9,32.4l2-3.8l-9.6-5l-2,3.8l2.8,1.5l-6.8,13l4,2.1l6.8-13L340.9,32.4z M358.1,54.8l8-11.4l-3.7-2.6l-7.7,10.9
	c-0.2,0.5-0.8,0.8-1.4,0.6c-0.1,0-0.2-0.1-0.3-0.2l-0.9-0.5l-2.4,3.4c0.5,0.4,1.2,0.9,1.5,1.1C354.5,58.4,356.4,57.3,358.1,54.8
	 M378.8,68.1l7.3-8.6l-3.5-2.9l-7.3,8.6c-1.4,1.6-3.1,2.1-4.8,0.7c-1.6-1.4-1.5-3.2-0.2-4.8l7.3-8.7l-3.5-2.9l-7.3,8.7
	c-3,3.6-3.2,7.6,0.8,11S375.9,71.6,378.8,68.1 M393.6,80.1c-2.7,2.5-5.4,2.3-7.5,0.1l7.8-7.5C396.1,74.9,396.2,77.6,393.6,80.1
	 M396.8,83.5c4.3-4.1,4.2-9.2-0.2-13.8l-3-3.1l-13.6,13l3,3.1C387.4,87.3,392.6,87.6,396.8,83.5 M412.2,94.2l3.3-2.6l-5.6-7
	l-14.8,11.7l5.6,7.1l3.3-2.6l-2.8-3.5l2.5-2l2.6,3.3l3.3-2.6l-2.6-3.3l2.3-1.8L412.2,94.2z M289.3,106.8c0-0.4-0.2-0.7-0.6-0.8l0,0
	c-16.6-2.3-24.2-9.9-26.4-26.5l0,0c-0.1-0.3-0.4-0.6-0.8-0.6h-0.1c-0.4,0.1-0.7,0.4-0.7,0.8l0,0c-2.3,16.3-9.8,23.8-26.2,26.1h-0.3
	c-0.4,0.1-0.7,0.4-0.7,0.8c0,0.5,0.4,0.8,0.8,0.8c0,0,0,0,0,0h0.1c16.4,2.3,24,9.8,26.3,26.1v0.1c0,0.1,0,0.2,0.1,0.3
	c0.1,0.3,0.4,0.5,0.8,0.5c0.4,0,0.7-0.3,0.8-0.6c0-0.1,0-0.1,0-0.2l0,0c2.3-16.5,9.9-23.9,26.4-26.2l0,0
	C289.1,107.4,289.3,107.1,289.3,106.8 M338.3,152c0-0.2-0.2-0.5-0.4-0.5l0,0c-11.3-1.6-16.5-6.7-18.1-18.1l0,0
	c-0.1-0.2-0.3-0.4-0.5-0.4h-0.1c-0.3,0.1-0.5,0.3-0.5,0.6l0,0c-1.6,11.2-6.7,16.3-17.9,17.8h-0.2c-0.3,0-0.5,0.3-0.5,0.6
	c0,0.3,0.2,0.6,0.6,0.6c0,0,0,0,0,0h0.1c11.2,1.6,16.4,6.7,18,17.9l0,0c0,0.1,0,0.2,0.1,0.2c0.1,0.2,0.3,0.3,0.5,0.3
	c0.3,0,0.5-0.2,0.5-0.5c0,0,0-0.1,0-0.1l0,0c1.6-11.2,6.8-16.4,18-17.9l0,0C338.1,152.3,338.2,152.1,338.3,152 M376.5,322.9
	c-30.1,47.6-81.6,77.4-137.8,79.9v-50.2c0.3-8.2,3.3-15.1,8.1-19.7c9.5-9.2,24.1-10,24.2-10H376.5z M384.4,309h-87.1
	c31.8-10.4,64.4-18.7,97.3-24.6C391.9,292.9,388.4,301.1,384.4,309 M398.8,269.7c-37.6,6.4-74.6,15.7-110.8,27.9
	c12.8-9.1,26.4-18,39-24.3c28.5-14.3,60.2-22.9,75.3-26.5C401.7,254.5,400.5,262.2,398.8,269.7 M403,232.5
	c-6.9,1.6-19.5,4.6-34.5,9.4l-38-38.8c-4.2-4.2-10-6.5-16-6.5h-25.4c-2.1,0-4.1-0.9-5.6-2.4L248,158.4c-4.4-4.3-10.4-6.7-16.6-6.4
	c-6,0.3-11.7,2.9-15.9,7.3l-16,15.9c-1.5,1.5-3.5,2.4-5.6,2.5h-27.5c-6-0.1-11.7,2.3-16,6.5l-57.5,57.1c-14.7-4.6-26.8-7.5-33.3-8.9
	c0-0.4,0-0.8,0-1.2c0-94.7,77.1-171.8,171.8-171.8s171.8,77.1,171.8,171.8c0,0.4,0,0.9,0,1.3 M60.2,246.7
	c14.8,3.5,47.1,12.1,76,26.6c12.5,6.3,26.2,15.1,39,24.3c-36.3-12.3-73.6-21.6-111.4-28C62.1,262,60.9,254.4,60.2,246.7 M67.9,284.3
	c33.2,5.9,66,14.2,98.1,24.7H78.2C74.1,301.1,70.7,292.8,67.9,284.3 M86.1,322.9h104.5c0.1,0,14.9,0.5,24.4,9.7
	c5,4.9,7.9,12,8.5,20.7v0.3c0,0.8,0.2,1.6,0.6,2.2v47C167.8,400.4,116.2,370.5,86.1,322.9 M215.2,193.5c-0.8-0.8-5.1-4.7-5.1-4.7
	C211.9,190.3,213.6,191.9,215.2,193.5 M142.4,261c-11.3-5.6-22.9-10.5-34.8-14.7l53.2-52.1c1.5-1.6,3.5-2.5,5.6-2.6h16.3
	c5.6,0,11.1,3.2,15.1,6c2.4,1.7,4.7,3.6,6.8,5.7c0.1,0.1,0.2,0.4,0.2,0.5l18,18.1c1.3,1.3,3.4,1.3,4.7,0.1c0,0,0,0,0.1-0.1
	c2.1-2.2,3.2-5.1,3.2-8.1l0,0c0-3-1.3-5.9-3.4-8L217,195.4l-1.7-1.7c-1.6-1.7-3.4-3.3-5.2-4.8l-0.1-0.1c-0.3-0.4-0.6-0.9-0.8-1.5
	c0,0,0-0.1,0-0.1c0,0,0,0.1,0,0.1c0,0,0-0.1,0-0.1l0,0v-0.1c0-0.4,0.1-0.9,0.3-1.3c0.1-0.1,0.2-0.3,0.3-0.4l0,0l16.4-16.4
	c1.7-1.7,4.2-2.6,6.6-2.2c1.8,0.3,3.5,1.2,4.8,2.6l35.3,35.6c4.3,4.3,10,7.2,16,7.2h25.5c2.1,0,4.1,0.1,5.6,1.6l33.6,33.1
	c-11.2,4-22.2,8.7-32.9,14c-35.2,17.7-77.2,53.3-89.2,63.6C219.7,314.2,177.7,278.6,142.4,261 M417.8,231.1
	c0-103-83.5-186.5-186.5-186.5c-103,0-186.5,83.5-186.5,186.5c0,103,83.5,186.5,186.5,186.5C334.3,417.6,417.8,334.2,417.8,231.1
	 M427.8,324.8l-1.8-4c-2.2,0.9-3.9,2.6-4.9,4.7c-2.6,4.6-0.9,10.5,3.7,13c0.2,0.1,0.4,0.2,0.5,0.3c4.9,2.5,10.4,1.1,13.2-4.5
	c1.1-2.1,1.3-4.5,0.6-6.7l-4.1,0.9c0.3,1.3,0.2,2.7-0.4,3.8c-1.3,2.6-4.4,3.6-7,2.4c-0.1-0.1-0.2-0.1-0.3-0.2
	c-2.7-1.4-4.1-4.2-2.6-7.2C425.5,326.2,426.5,325.3,427.8,324.8 M440.4,308.1l-1.2,3.1l-3.9-3.2L440.4,308.1z M450.9,303.8
	l-20.1-0.1l-1.7,4.5l15.3,12.8l1.6-4.2l-3.7-3l2.1-5.6l4.8,0.1L450.9,303.8z M441.1,159.1c0-2.2-1.8-4-4-4c-2.2,0-4,1.8-4,4
	s1.8,4,4,4C439.3,163.1,441.1,161.3,441.1,159.1 M446.4,252.4c0.3-3.2,2.9-4.9,6-4.6c3.1,0.3,5.3,2.3,5,5.6c-0.3,3.1-2.9,4.9-6,4.6
	C448.3,257.7,446.1,255.7,446.4,252.4 M442.1,252.1c-0.6,5.2,3.1,10,8.3,10.6c0.2,0,0.3,0,0.5,0c5.5,0.5,10.1-2.8,10.7-8.9
	c0.7-5.2-2.9-10-8-10.7c-0.3,0-0.5-0.1-0.8-0.1C447.3,242.5,442.7,245.9,442.1,252.1 M462.3,229.6l-11.2,0.2l11-7.5l-0.1-4.5
	l-18.9,0.4l0.1,4.4l11.4-0.3l-11.2,7.4l0.1,4.7l18.9-0.4L462.3,229.6z"/>
</svg>
